<?xml version="1.0" encoding="UTF-8" standalone="no"?>
<!-- Created with Inkscape (http://www.inkscape.org/) -->

<svg
   xmlns:dc="http://purl.org/dc/elements/1.1/"
   xmlns:cc="http://creativecommons.org/ns#"
   xmlns:rdf="http://www.w3.org/1999/02/22-rdf-syntax-ns#"
   xmlns:svg="http://www.w3.org/2000/svg"
   xmlns="http://www.w3.org/2000/svg"
   xmlns:sodipodi="http://sodipodi.sourceforge.net/DTD/sodipodi-0.dtd"
   xmlns:inkscape="http://www.inkscape.org/namespaces/inkscape"
   width="744.09448819"
   height="1052.3622047"
   id="svg3328"
   version="1.1"
   inkscape:version="0.48.4 r9939"
   sodipodi:docname="drawing.svg">
  <defs
     id="defs3330" />
  <sodipodi:namedview
     id="base"
     pagecolor="#ffffff"
     bordercolor="#666666"
     borderopacity="1.0"
     inkscape:pageopacity="0.0"
     inkscape:pageshadow="2"
     inkscape:zoom="0.12374369"
     inkscape:cx="1869.4086"
     inkscape:cy="486.0238"
     inkscape:document-units="px"
     inkscape:current-layer="layer1"
     showgrid="false"
     inkscape:window-width="1375"
     inkscape:window-height="876"
     inkscape:window-x="65"
     inkscape:window-y="24"
     inkscape:window-maximized="1" />
  <metadata
     id="metadata3333">
    <rdf:RDF>
      <cc:Work
         rdf:about="">
        <dc:format>image/svg+xml</dc:format>
        <dc:type
           rdf:resource="http://purl.org/dc/dcmitype/StillImage" />
        <dc:title></dc:title>
      </cc:Work>
    </rdf:RDF>
  </metadata>
  <g
     inkscape:label="Layer 1"
     inkscape:groupmode="layer"
     id="layer1">
    <rect
       style="fill:#008000"
       id="rect3336"
       width="2571.4285"
       height="1385.7142"
       x="-1157.1429"
       y="323.79077" />
    <path
       style="fill:none;stroke:#000000;stroke-width:1px;stroke-linecap:butt;stroke-linejoin:miter;stroke-opacity:1"
       d="M -542.85714,569.50504 -1157.1429,1706.6479 C -540,566.6479 -514.28571,558.07647 -514.28571,558.07647 l 257.14285,540.00003 282.857146,-728.57146 162.857144,380 48.57143,-157.14286 294.28571,871.42862 220,-517.1429 182.85714,488.5714 40,-140 151.42859,391.4286 285.7143,20"
       id="path3370"
       inkscape:connector-curvature="0" />
    <path
       style="fill:#2b0000"
       d="m -1155.2857,1708.0903 c 0,-1.4456 210.22193,-387.5948 285.99856,-525.3406 194.51163,-353.58075 346.32674,-619.1337 354.06037,-619.31758 0.81811,-0.0194 58.5062,119.85749 128.19571,266.39321 69.68955,146.53571 127.62875,267.43717 128.75383,268.66987 1.12509,1.2328 65.47166,-161.12105 142.99243,-360.78616 L 25.662057,374.68154 103.70046,556.89629 c 92.17465,215.22209 83.79177,196.10346 85.31634,194.57889 0.67729,-0.67728 11.52654,-34.45508 24.10943,-75.0618 12.58288,-40.60668 23.34346,-74.29583 23.91237,-74.86475 0.56894,-0.56893 66.37366,192.79272 146.23274,429.69257 79.85906,236.8998 146.07657,431.7431 147.15003,432.985 1.07346,1.2418 11.63774,-20.6153 23.4762,-48.5715 11.83846,-27.9561 61.12243,-143.8107 109.51992,-257.4545 l 87.99542,-206.6251 90.26375,241.4286 c 49.64505,132.7858 91.02774,242.1927 91.96154,243.1265 0.9338,0.9338 10.52054,-29.3042 21.30389,-67.1956 10.78334,-37.8914 20.17368,-67.1741 20.8674,-65.0728 0.69374,2.1014 34.34591,89.3207 74.78261,193.8207 l 73.5212,190 9.5862,0.918 c 5.2724,0.5049 67.4434,5.1615 138.1576,10.3479 l 128.5715,9.4298 -1277.85717,0.3664 c -702.82143,0.2016 -1277.85713,-0.093 -1277.85713,-0.6543 z"
       id="path3372"
       inkscape:connector-curvature="0" />
    <path
       style="fill:none;stroke:#000000;stroke-width:1px;stroke-linecap:butt;stroke-linejoin:miter;stroke-opacity:1"
       d="m -665.71429,815.21933 c 151.42858,62.85714 177.14286,68.57142 177.14286,68.57142 l 22.85714,-11.42857 28.57143,-8.57143 45.71429,11.42858 25.71428,-2.85715"
       id="path3374"
       inkscape:connector-curvature="0" />
    <path
       style="fill:#ffffff"
       d="m -536.71429,865.24784 c -58.60697,-22.5018 -119.64659,-47.58002 -122.39795,-50.28738 -2.43275,-2.39386 25.76347,-53.18662 93.10808,-167.72518 36.65414,-62.34073 48.92156,-80.93931 51.5299,-78.12424 2.60122,2.80738 145.02577,300.82946 144.17349,301.68171 -2.99766,2.99769 -26.8929,1.31206 -46.04185,-3.24788 l -22.48548,-5.35449 -21.80024,7.9538 c -11.99013,4.37457 -25.01452,8.518 -28.94309,9.2076 -4.31088,0.75672 -23.00189,-4.83517 -47.14286,-14.10394 z"
       id="path3376"
       inkscape:connector-curvature="0" />
    <path
       style="fill:none;stroke:#000000;stroke-width:1px;stroke-linecap:butt;stroke-linejoin:miter;stroke-opacity:1"
       d="m -65.714286,618.07647 37.142857,34.28571 c 0,0 -28.571428,11.42857 5.714286,-11.42857 34.285714,-22.85714 71.428572,-45.71428 71.428572,-45.71428"
       id="path3378"
       inkscape:connector-curvature="0" />
    <path
       style="fill:none;stroke:#000000;stroke-width:1px;stroke-linecap:butt;stroke-linejoin:miter;stroke-opacity:1"
       d="m 51.428571,595.21933 22.857143,34.28571 14.285715,-28.57143 37.142861,25.71429 8.57142,2.85714"
       id="path3380"
       inkscape:connector-curvature="0" />
    <path
       style="fill:none;stroke:#000000;stroke-width:1px;stroke-linecap:butt;stroke-linejoin:miter;stroke-opacity:1"
       d="M 200,712.36218 234.28571,729.50504 260,726.6479 277.14286,703.79075"
       id="path3382"
       inkscape:connector-curvature="0" />
    <path
       style="fill:none;stroke:#000000;stroke-width:1px;stroke-linecap:butt;stroke-linejoin:miter;stroke-opacity:1"
       d="M 702.85714,1063.7908 720,1072.3622"
       id="path3384"
       inkscape:connector-curvature="0" />
    <path
       style="fill:none;stroke:#000000;stroke-width:1px;stroke-linecap:butt;stroke-linejoin:miter;stroke-opacity:1"
       d="m 714.28571,1069.505 17.14286,22.8572 31.42857,-14.2857 20,31.4285 20,-28.5714"
       id="path3386"
       inkscape:connector-curvature="0" />
    <path
       style="fill:none;stroke:#000000;stroke-width:1px;stroke-linecap:butt;stroke-linejoin:miter;stroke-opacity:1"
       d="m 954.28571,1386.6479 22.85715,11.4286 25.71424,-8.5715 8.5715,-5.7142"
       id="path3388"
       inkscape:connector-curvature="0" />
    <path
       style="fill:#ffffff"
       d="M -49.969998,630.54397 -66.082853,614.94921 -21.164894,499.1774 C 3.5399829,435.50291 24.393943,382.76472 25.17724,381.98142 c 0.783294,-0.7833 24.877074,53.33721 53.541729,120.26779 28.664661,66.93058 51.470051,122.33948 50.678661,123.13087 -0.7914,0.7914 -9.72504,-4.47395 -19.85253,-11.70078 -10.127489,-7.22683 -19.189986,-13.13969 -20.138883,-13.13969 -0.948894,0 -4.716163,5.88512 -8.371708,13.07803 l -6.646443,13.07803 -10.58036,-15.93517 c -5.819197,-8.76435 -12.061809,-15.93517 -13.872469,-15.93517 -3.450657,0 -15.75352,7.45703 -57.5662599,34.89216 -13.8613481,9.09502 -25.4327771,16.5105 -25.7142861,16.47883 -0.281514,-0.0317 -7.76262,-7.07523 -16.624689,-15.65235 l 0,0 z"
       id="path3390"
       inkscape:connector-curvature="0" />
    <path
       style="fill:#ffffff"
       d="m 219.07978,720.67722 c -7.90102,-3.86855 -14.36549,-8.39237 -14.36549,-10.05293 0,-2.96778 31.06171,-102.09877 32.41598,-103.45304 0.38128,-0.38128 8.24936,22.2132 17.48464,50.20995 l 16.79141,50.90318 -6.19224,8.69619 c -8.62871,12.11792 -26.07918,13.51618 -46.1343,3.69665 z"
       id="path3392"
       inkscape:connector-curvature="0" />
    <path
       style="fill:#ffffff"
       d="m 773.28571,1091.9682 c -5.04191,-7.8572 -10.37002,-14.2857 -11.84024,-14.2857 -1.47021,0 -7.71353,2.5714 -13.87404,5.7143 -14.8324,7.5669 -16.0139,7.3588 -23.54516,-4.1473 -3.55016,-5.4239 -9.24071,-11.1333 -12.64567,-12.6876 -6.08755,-2.7788 -5.83104,-3.6748 15.37619,-53.7099 11.86186,-27.98608 22.45304,-51.87484 23.53595,-53.08609 1.08292,-1.21124 12.53994,26.05482 25.46006,60.59129 l 23.49112,62.7935 -7.64449,11.5516 c -4.20447,6.3534 -7.98247,11.5516 -8.39555,11.5516 -0.41307,0 -4.87625,-6.4286 -9.91817,-14.2857 z"
       id="path3394"
       inkscape:connector-curvature="0" />
    <path
       style="fill:#ffffff"
       d="m -1151.4858,1704.111 c 0.7041,-1.1785 68.1073,-124.9285 149.7849,-275 130.16704,-239.164 296.74913,-540.96213 327.57541,-593.471 9.3098,-15.85818 11.10343,-17.4912 16.77495,-15.27309 3.4928,1.36602 30.50568,12.24753 60.02865,24.18115 29.52295,11.93361 66.19363,26.05385 81.49038,31.3783 l 27.81231,9.68082 12.79531,-6.62457 c 23.37166,-12.10032 37.32809,-13.98925 60.69946,-8.21539 11.367,2.8082 26.83457,5.19151 34.37234,5.29625 l 13.70506,0.19042 53.13334,110.71429 c 29.22332,60.89282 54.08689,110.71432 55.2524,110.71432 2.33718,0 60.53135,-145.18626 138.57075,-345.71432 27.825597,-71.5 51.008226,-130.46048 51.51694,-131.02328 0.508714,-0.56281 8.044743,5.12351 16.746743,12.63627 12.434657,10.7353 15.135771,14.48621 12.6172,17.5209 -4.169886,5.0244 -2.216486,6.74712 5.393857,4.75697 3.358371,-0.87823 5.488057,-3.20738 4.732657,-5.1759 -1.239257,-3.22951 72.179629,-53.04103 78.082686,-52.97569 1.241686,0.0137 7.309343,7.86512 13.483657,17.4475 l 11.226086,17.42251 7.372943,-14.54983 7.372971,-14.54983 17.11526,11.56899 c 9.4134,6.36294 19.68668,12.67303 22.82954,14.02241 3.98491,1.71093 13.45166,20.67913 31.28066,62.6762 14.06151,33.12253 26.4924,60.22278 27.6242,60.22278 1.1318,0 4.82911,-8.32768 8.21623,-18.50596 l 6.15837,-18.50597 16.21743,8.01036 c 21.71962,10.7281 39.13094,9.69364 48.04548,-2.85453 l 6.06212,-8.53308 8.4612,23.76602 c 4.65368,13.07131 62.27542,182.23031 128.04834,375.90888 65.77291,193.6786 120.70231,352.1429 122.06531,352.1429 3.58832,0 13.483,-22.3087 95.04375,-214.2858 40.39071,-95.0714 74.59431,-175.0592 76.00802,-177.7507 3.59206,-6.8388 8.86903,-3.9437 19.30866,10.5932 l 8.98514,12.5116 15.84909,-7.256 c 8.717,-3.9907 16.1658,-6.8025 16.55289,-6.2484 0.38708,0.5541 4.99157,7.8398 10.23217,16.1903 l 9.52843,15.1828 8.80028,-12.5674 8.80029,-12.5675 65.31065,173.0989 c 35.92086,95.2044 66.26283,174.095 67.42655,175.3124 1.90711,1.995 11.41823,-26.3436 33.10663,-98.642 4.1248,-13.75 8.38611,-24.9897 9.46957,-24.9771 1.08348,0.011 8.23834,16.3048 15.89971,36.2049 13.14833,34.1524 13.64133,36.3928 8.78933,39.9408 -9.07216,6.6337 -23.96899,7.8321 -34.56244,2.7804 -14.7854,-7.0507 -41.36706,-2.4798 -26.85429,5.1095 12.67625,6.629 38.5092,3.7785 53.35357,-1.3287 10.84786,-3.7322 15.27466,-4.2189 16.25326,-1.7867 0.7397,1.8384 26.6876,68.914 57.6619,149.0569 30.9744,80.1428 56.6108,146.0364 56.9698,146.4302 0.3591,0.3937 43.6164,3.8893 96.1274,7.768 52.511,3.8787 99.9746,7.5293 105.4746,8.1126 5.5,0.5832 -549.68304,1.2662 -1233.740071,1.5176 -684.057029,0.2515 -1243.164029,-0.507 -1242.460029,-1.6856 z"
       id="path3396"
       inkscape:connector-curvature="0"
       sodipodi:nodetypes="cssssscssscsssssssscscccssssscsscsssssscssscccscscscssssscscsc" />
    <path
       style="fill:#550000"
       d="m -1144.0776,1694.111 c 2.9156,-5.1071 40.9734,-74.8571 84.5728,-155 206.06063,-378.773 386.90563,-705.32325 395.06691,-713.36884 4.56189,-4.4972 7.19103,-3.85453 42.00932,10.26885 20.42857,8.28646 58.59008,23.18746 84.80337,33.11333 l 47.66054,18.04704 17.51446,-7.59582 c 24.328,-10.55075 34.98131,-11.64662 62.48011,-6.42708 13.13789,2.49369 28.0312,4.53399 33.09629,4.53399 8.99909,0 9.62283,0.86397 27.33131,37.85714 49.62755,103.67229 88.8478,182.14289 91.03658,182.14289 1.34191,0 5.75157,-7.3929 9.79922,-16.4286 7.30398,-16.3049 73.10529,-181.82775 143.68086,-361.42857 20.223316,-51.46429 37.83483,-93.57143 39.136716,-93.57143 6.223857,0 24.889114,18.57133 24.889114,24.7639 0,9.43003 8.111657,8.43907 18.571429,-2.26878 11.382685,-11.65267 66.945771,-48.73929 71.053828,-47.42622 1.777543,0.56815 8.326314,8.3889 14.552857,17.37943 l 11.320972,16.34643 6.884543,-13.6831 c 3.786514,-7.5257 7.2248,-14.07294 7.640628,-14.54943 0.4158,-0.47648 10.0694,5.15846 21.452433,12.52209 22.96111,14.85348 19.60425,9.29751 59.91517,99.16591 8.30871,18.52334 16.42077,33.2408 18.02674,32.70547 1.60597,-0.53532 5.51283,-7.9765 8.68191,-16.53594 3.16906,-8.55944 5.91952,-15.83925 6.11212,-16.17734 0.19257,-0.3381 8.53037,2.68941 18.52843,6.72781 21.4628,8.6692 35.48351,7.76502 44.74334,-2.88548 l 6.05583,-6.96531 52.17534,153.29742 c 116.66477,342.77524 202.4862,591.75524 204.99734,594.72604 3.71158,4.3909 18.97303,-28.7923 92.27255,-200.6291 44.42843,-104.154 81.73194,-190.4638 82.89674,-191.7995 2.31037,-2.6494 9.29071,3.507 18.726,16.5158 l 6.03674,8.323 16.20877,-6.5786 c 8.91483,-3.6183 16.56163,-6.0892 16.99286,-5.4909 0.43126,0.5983 5.04343,7.8758 10.24929,16.1721 l 9.46517,15.0843 8.73548,-11.8784 8.73549,-11.8784 8.48117,22.5084 c 7.55574,20.0525 74.67903,196.4135 109.94509,288.8719 14.70211,38.5451 16.18211,39.3188 24.72045,12.9222 l 4.85195,-15 15.0306,0 c 8.2668,0 21.28205,-1.8814 28.92277,-4.1809 7.64071,-2.2995 14.12157,-3.9067 14.40187,-3.5715 0.2803,0.3353 25.8736,66.181 56.874,146.3238 31.0003,80.1429 57.4855,146.9118 58.856,148.3754 1.3705,1.4635 36.9087,5.4847 78.9737,8.9358 l 76.4818,6.2749 -1213.475029,0.3498 -1213.475071,0.3499 5.3011,-9.2858 z"
       id="path3398"
       inkscape:connector-curvature="0" />
    <rect
       style="fill:#008000"
       id="rect3336-6"
       width="2571.4285"
       height="1385.7142"
       x="1400.2501"
       y="325.21936" />
    <path
       style="fill:none;stroke:#000000;stroke-width:1px;stroke-linecap:butt;stroke-linejoin:miter;stroke-opacity:1"
       d="M 2014.5358,570.93362 1400.25,1708.0765 C 2017.3929,568.07648 2043.1072,559.50505 2043.1072,559.50505 l 257.1429,540.00005 282.8571,-728.57148 162.8571,380 48.5715,-157.14286 294.2857,871.42864 220,-517.14292 182.8571,488.57142 40,-140 151.4286,391.4286 285.7143,20"
       id="path3370-8"
       inkscape:connector-curvature="0" />
    <path
       style="fill:#2b0000"
       d="m 1402.1072,1709.5189 c 0,-1.4456 210.222,-387.5948 285.9986,-525.3406 194.5116,-353.58077 346.3267,-619.13372 354.0604,-619.3176 0.8181,-0.0194 58.5062,119.85749 128.1957,266.39321 69.6895,146.53571 127.6287,267.43719 128.7538,268.66989 1.1251,1.2328 65.4717,-161.12107 142.9924,-360.78618 l 140.9469,-363.0275 78.0384,182.21475 c 92.1746,215.22209 83.7917,196.10346 85.3163,194.57889 0.6773,-0.67728 11.5265,-34.45508 24.1094,-75.0618 12.5829,-40.60668 23.3435,-74.29583 23.9124,-74.86475 0.5689,-0.56893 66.3737,192.79272 146.2327,429.69259 79.8591,236.8998 146.0766,431.7431 147.1501,432.985 1.0734,1.2418 11.6377,-20.6153 23.4762,-48.5715 11.8384,-27.9561 61.1224,-143.8107 109.5199,-257.4545 l 87.9954,-206.62512 90.2638,241.42862 c 49.645,132.7858 91.0277,242.1927 91.9615,243.1265 0.9338,0.9338 10.5205,-29.3042 21.3039,-67.1956 10.7833,-37.8914 20.1737,-67.1741 20.8674,-65.0728 0.6937,2.1014 34.3459,89.3207 74.7826,193.8207 l 73.5212,190 9.5862,0.918 c 5.2724,0.5049 67.4434,5.1615 138.1576,10.3479 l 128.5715,9.4298 -1277.8572,0.3664 c -702.8214,0.2016 -1277.8571,-0.093 -1277.8571,-0.6543 z"
       id="path3372-8"
       inkscape:connector-curvature="0" />
    <path
       style="fill:none;stroke:#000000;stroke-width:1px;stroke-linecap:butt;stroke-linejoin:miter;stroke-opacity:1"
       d="m 1891.6786,816.64791 c 151.4286,62.85714 177.1429,68.57142 177.1429,68.57142 l 22.8571,-11.42857 28.5715,-8.57143 45.7143,11.42858 25.7142,-2.85715"
       id="path3374-2"
       inkscape:connector-curvature="0" />
    <path
       style="fill:#ffffff"
       d="m 2020.6786,866.67642 c -58.6069,-22.5018 -119.6465,-47.58002 -122.3979,-50.28738 -2.4328,-2.39386 25.7635,-53.18662 93.1081,-167.72518 36.6541,-62.34073 48.9215,-80.93931 51.5299,-78.12424 2.6012,2.80738 145.0257,300.82946 144.1735,301.68171 -2.9977,2.99769 -26.8929,1.31206 -46.0419,-3.24788 l -22.4855,-5.35449 -21.8002,7.9538 c -11.9901,4.37457 -25.0145,8.518 -28.9431,9.2076 -4.3109,0.75672 -23.0019,-4.83517 -47.1429,-14.10394 z"
       id="path3376-0"
       inkscape:connector-curvature="0" />
    <path
       style="fill:none;stroke:#000000;stroke-width:1px;stroke-linecap:butt;stroke-linejoin:miter;stroke-opacity:1"
       d="m 2491.6786,619.50505 37.1429,34.28571 c 0,0 -28.5715,11.42857 5.7143,-11.42857 34.2857,-22.85714 71.4285,-45.71428 71.4285,-45.71428"
       id="path3378-0"
       inkscape:connector-curvature="0" />
    <path
       style="fill:none;stroke:#000000;stroke-width:1px;stroke-linecap:butt;stroke-linejoin:miter;stroke-opacity:1"
       d="m 2608.8215,596.64791 22.8571,34.28571 14.2857,-28.57143 37.1429,25.71429 8.5714,2.85714"
       id="path3380-5"
       inkscape:connector-curvature="0" />
    <path
       style="fill:none;stroke:#000000;stroke-width:1px;stroke-linecap:butt;stroke-linejoin:miter;stroke-opacity:1"
       d="m 2757.3929,713.79076 34.2857,17.14286 25.7143,-2.85714 17.1429,-22.85715"
       id="path3382-8"
       inkscape:connector-curvature="0" />
    <path
       style="fill:none;stroke:#000000;stroke-width:1px;stroke-linecap:butt;stroke-linejoin:miter;stroke-opacity:1"
       d="m 3260.25,1065.2194 17.1429,8.5714"
       id="path3384-0"
       inkscape:connector-curvature="0" />
    <path
       style="fill:none;stroke:#000000;stroke-width:1px;stroke-linecap:butt;stroke-linejoin:miter;stroke-opacity:1"
       d="m 3271.6786,1070.9336 17.1429,22.8572 31.4285,-14.2857 20,31.4285 20,-28.5714"
       id="path3386-5"
       inkscape:connector-curvature="0" />
    <path
       style="fill:none;stroke:#000000;stroke-width:1px;stroke-linecap:butt;stroke-linejoin:miter;stroke-opacity:1"
       d="m 3511.6786,1388.0765 22.8572,11.4286 25.7142,-8.5715 8.5715,-5.7142"
       id="path3388-9"
       inkscape:connector-curvature="0" />
    <path
       style="fill:#ffffff"
       d="m 2507.4229,631.97255 -16.1129,-15.59476 44.918,-115.77181 c 24.7049,-63.67449 45.5588,-116.41268 46.3421,-117.19598 0.7833,-0.7833 24.8771,53.33721 53.5418,120.26779 28.6646,66.93058 51.47,122.33948 50.6786,123.13087 -0.7914,0.7914 -9.725,-4.47395 -19.8525,-11.70078 -10.1275,-7.22683 -19.19,-13.13969 -20.1389,-13.13969 -0.9489,0 -4.7161,5.88512 -8.3717,13.07803 l -6.6464,13.07803 -10.5804,-15.93517 c -5.8192,-8.76435 -12.0618,-15.93517 -13.8725,-15.93517 -3.4506,0 -15.7535,7.45703 -57.5662,34.89216 -13.8614,9.09502 -25.4328,16.5105 -25.7143,16.47883 -0.2815,-0.0317 -7.7626,-7.07523 -16.6247,-15.65235 l 0,0 z"
       id="path3390-4"
       inkscape:connector-curvature="0" />
    <path
       style="fill:#ffffff"
       d="m 2776.4727,722.1058 c -7.901,-3.86855 -14.3655,-8.39237 -14.3655,-10.05293 0,-2.96778 31.0617,-102.09877 32.416,-103.45304 0.3813,-0.38128 8.2493,22.2132 17.4846,50.20995 l 16.7914,50.90318 -6.1922,8.69619 c -8.6287,12.11792 -26.0792,13.51618 -46.1343,3.69665 z"
       id="path3392-8"
       inkscape:connector-curvature="0" />
    <path
       style="fill:#ffffff"
       d="m 3330.6786,1093.3968 c -5.0419,-7.8572 -10.37,-14.2857 -11.8402,-14.2857 -1.4702,0 -7.7136,2.5714 -13.8741,5.7143 -14.8324,7.5669 -16.0139,7.3588 -23.5451,-4.1473 -3.5502,-5.4239 -9.2407,-11.1333 -12.6457,-12.6876 -6.0875,-2.7788 -5.831,-3.6748 15.3762,-53.7099 11.8619,-27.9861 22.453,-51.87486 23.5359,-53.08611 1.083,-1.21124 12.54,26.05482 25.4601,60.59131 l 23.4911,62.7935 -7.6445,11.5516 c -4.2044,6.3534 -7.9824,11.5516 -8.3955,11.5516 -0.4131,0 -4.8763,-6.4286 -9.9182,-14.2857 z"
       id="path3394-6"
       inkscape:connector-curvature="0" />
    <path
       style="fill:#ffffff"
       d="m 1405.9071,1705.5396 c 0.7041,-1.1785 68.1073,-124.9285 149.7849,-275 130.1671,-239.164 296.7492,-540.96215 327.5754,-593.47102 9.3098,-15.85818 11.1035,-17.4912 16.775,-15.27309 3.4928,1.36602 30.5057,12.24753 60.0286,24.18115 29.523,11.93361 66.1937,26.05385 81.4904,31.3783 l 27.8123,9.68082 12.7953,-6.62457 c 23.3717,-12.10032 37.3281,-13.98925 60.6995,-8.21539 11.367,2.8082 26.8346,5.19151 34.3723,5.29625 l 13.7051,0.19042 53.1333,110.71429 c 29.2234,60.89284 54.0869,110.71434 55.2524,110.71434 2.3372,0 60.5314,-145.18628 138.5708,-345.71434 27.8256,-71.5 51.0082,-130.46048 51.5169,-131.02328 0.5087,-0.56281 8.0447,5.12351 16.7467,12.63627 12.4347,10.7353 15.1358,14.48621 12.6172,17.5209 -4.1698,5.0244 -2.2164,6.74712 5.3939,4.75697 3.3584,-0.87823 5.4881,-3.20738 4.7327,-5.1759 -1.2393,-3.22951 72.1796,-53.04103 78.0826,-52.97569 1.2417,0.0137 7.3094,7.86512 13.4837,17.4475 l 11.2261,17.42251 7.3729,-14.54983 7.373,-14.54983 17.1153,11.56899 c 9.4134,6.36294 19.6866,12.67303 22.8295,14.02241 3.9849,1.71093 13.4517,20.67913 31.2807,62.6762 14.0615,33.12253 26.4924,60.22278 27.6242,60.22278 1.1318,0 4.8291,-8.32768 8.2162,-18.50596 l 6.1584,-18.50597 16.2174,8.01036 c 21.7196,10.7281 39.1309,9.69364 48.0455,-2.85453 l 6.0621,-8.53308 8.4612,23.76602 c 4.6537,13.07131 62.2754,182.23031 128.0483,375.9089 65.7729,193.6786 120.7023,352.1429 122.0653,352.1429 3.5884,0 13.483,-22.3087 95.0438,-214.2858 40.3907,-95.0714 74.5943,-175.0592 76.008,-177.7507 3.5921,-6.8388 8.869,-3.9437 19.3087,10.5932 l 8.9851,12.5116 15.8491,-7.256 c 8.717,-3.9907 16.1658,-6.8025 16.5529,-6.2484 0.3871,0.5541 4.9916,7.8398 10.2322,16.1903 l 9.5284,15.1828 8.8003,-12.5674 8.8003,-12.5675 65.3106,173.0989 c 35.9209,95.2044 66.2628,174.095 67.4266,175.3124 1.9071,1.995 11.4182,-26.3436 33.1066,-98.642 4.1248,-13.75 8.3861,-24.9897 9.4696,-24.9771 1.0834,0.011 8.2383,16.3048 15.8997,36.2049 13.1483,34.1524 13.6413,36.3928 8.7893,39.9408 -9.0722,6.6337 -23.969,7.8321 -34.5624,2.7804 -14.7854,-7.0507 -41.3671,-2.4798 -26.8543,5.1095 12.6762,6.629 38.5092,3.7785 53.3535,-1.3287 10.8479,-3.7322 15.2747,-4.2189 16.2533,-1.7867 0.7397,1.8384 26.6876,68.914 57.6619,149.0569 30.9744,80.1428 56.6108,146.0364 56.9698,146.4302 0.3591,0.3937 43.6164,3.8893 96.1274,7.768 52.511,3.8787 99.9746,7.5293 105.4746,8.1126 5.5,0.5832 -549.683,1.2662 -1233.7401,1.5176 -684.057,0.2515 -1243.164,-0.507 -1242.46,-1.6856 z"
       id="path3396-0"
       inkscape:connector-curvature="0"
       sodipodi:nodetypes="cssssscssscsssssssscscccssssscsscsssssscssscccscscscssssscscsc" />
    <path
       style="fill:#550000"
       d="m 1413.3153,1695.5396 c 2.9156,-5.1071 40.9734,-74.8571 84.5728,-155 206.0607,-378.773 386.9057,-705.32327 395.0669,-713.36886 4.5619,-4.4972 7.1911,-3.85453 42.0094,10.26885 20.4285,8.28646 58.59,23.18746 84.8033,33.11333 l 47.6606,18.04704 17.5144,-7.59582 c 24.328,-10.55075 34.9813,-11.64662 62.4801,-6.42708 13.1379,2.49369 28.0312,4.53399 33.0963,4.53399 8.9991,0 9.6229,0.86397 27.3313,37.85714 49.6276,103.67231 88.8478,182.14291 91.0366,182.14291 1.3419,0 5.7516,-7.3929 9.7992,-16.4286 7.304,-16.3049 73.1053,-181.82777 143.6809,-361.42859 20.2233,-51.46429 37.8348,-93.57143 39.1367,-93.57143 6.2238,0 24.8891,18.57133 24.8891,24.7639 0,9.43003 8.1117,8.43907 18.5714,-2.26878 11.3827,-11.65267 66.9458,-48.73929 71.0539,-47.42622 1.7775,0.56815 8.3263,8.3889 14.5528,17.37943 l 11.321,16.34643 6.8845,-13.6831 c 3.7865,-7.5257 7.2248,-14.07294 7.6407,-14.54943 0.4158,-0.47648 10.0694,5.15846 21.4524,12.52209 22.9611,14.85348 19.6042,9.29751 59.9152,99.16591 8.3087,18.52334 16.4207,33.2408 18.0267,32.70547 1.606,-0.53532 5.5128,-7.9765 8.6819,-16.53594 3.1691,-8.55944 5.9195,-15.83925 6.1121,-16.17734 0.1926,-0.3381 8.5304,2.68941 18.5285,6.72781 21.4628,8.6692 35.4835,7.76502 44.7433,-2.88548 l 6.0558,-6.96531 52.1754,153.29742 c 116.6647,342.77526 202.4862,591.75526 204.9973,594.72606 3.7116,4.3909 18.973,-28.7923 92.2726,-200.6291 44.4284,-104.154 81.7319,-190.4638 82.8967,-191.7995 2.3104,-2.6494 9.2907,3.507 18.726,16.5158 l 6.0367,8.323 16.2088,-6.5786 c 8.9148,-3.6183 16.5616,-6.0892 16.9929,-5.4909 0.4312,0.5983 5.0434,7.8758 10.2493,16.1721 l 9.4651,15.0843 8.7355,-11.8784 8.7355,-11.8784 8.4812,22.5084 c 7.5557,20.0525 74.679,196.4135 109.9451,288.8719 14.7021,38.5451 16.1821,39.3188 24.7204,12.9222 l 4.852,-15 15.0306,0 c 8.2668,0 21.282,-1.8814 28.9227,-4.1809 7.6407,-2.2995 14.1216,-3.9067 14.4019,-3.5715 0.2803,0.3353 25.8736,66.181 56.874,146.3238 31.0003,80.1429 57.4855,146.9118 58.856,148.3754 1.3705,1.4635 36.9087,5.4847 78.9737,8.9358 l 76.4818,6.2749 -1213.475,0.3498 -1213.4751,0.3499 5.3011,-9.2858 z"
       id="path3398-8"
       inkscape:connector-curvature="0" />
    <rect
       style="fill:#008000"
       id="rect3336-8"
       width="2571.4285"
       height="1385.7142"
       x="3910.7603"
       y="327.18027" />
    <path
       style="fill:none;stroke:#000000;stroke-width:1px;stroke-linecap:butt;stroke-linejoin:miter;stroke-opacity:1"
       d="M 4541.2086,564.81326 3926.9229,1701.9561 C 4544.0658,561.95606 4569.7801,553.38466 4569.7801,553.38466 l 257.1428,540.00004 282.8572,-728.57144 162.8571,380 48.5715,-157.1429 294.2857,871.42864 220,-517.14294 182.8571,488.57144 40,-140 151.4286,391.4286 285.7143,20"
       id="path3370-3"
       inkscape:connector-curvature="0" />
    <path
       style="fill:#2b0000"
       d="m 3928.7801,1703.3985 c 0,-1.4456 210.2219,-387.5948 285.9985,-525.3406 194.5117,-353.58074 346.3268,-619.13374 354.0604,-619.31754 0.8181,-0.019 58.5062,119.8574 128.1957,266.3932 69.6896,146.5357 127.6288,267.43714 128.7539,268.66984 1.125,1.2328 65.4716,-161.12104 142.9924,-360.78614 l 140.9469,-363.0275 78.0384,182.2147 c 92.1746,215.2221 83.7917,196.1035 85.3163,194.5789 0.6773,-0.6773 11.5265,-34.4551 24.1094,-75.0618 12.5829,-40.6067 23.3435,-74.2958 23.9124,-74.8647 0.5689,-0.569 66.3737,192.7927 146.2327,429.69254 79.8591,236.8998 146.0766,431.7431 147.1501,432.985 1.0734,1.2418 11.6377,-20.6153 23.4762,-48.5715 11.8384,-27.9561 61.1224,-143.8107 109.5199,-257.4545 l 87.9954,-206.62514 90.2638,241.42864 c 49.645,132.7858 91.0277,242.1927 91.9615,243.1265 0.9338,0.9338 10.5205,-29.3042 21.3039,-67.1956 10.7833,-37.8914 20.1737,-67.1741 20.8674,-65.0728 0.6937,2.1014 34.3459,89.3207 74.7826,193.8207 l 73.5212,190 9.5862,0.918 c 5.2724,0.5049 67.4434,5.1615 138.1576,10.3479 l 128.5715,9.4298 -1277.8572,0.3664 c -702.8214,0.2016 -1277.8571,-0.093 -1277.8571,-0.6543 z"
       id="path3372-4"
       inkscape:connector-curvature="0" />
    <path
       style="fill:none;stroke:#000000;stroke-width:1px;stroke-linecap:butt;stroke-linejoin:miter;stroke-opacity:1"
       d="m 4418.3515,810.52756 c 151.4286,62.8571 177.1429,68.5714 177.1429,68.5714 l 22.8571,-11.4286 28.5714,-8.5714 45.7143,11.4286 25.7143,-2.8572"
       id="path3374-1"
       inkscape:connector-curvature="0" />
    <path
       style="fill:#ffffff"
       d="m 4547.3515,860.55606 c -58.607,-22.5018 -119.6466,-47.58 -122.398,-50.2874 -2.4327,-2.3939 25.7635,-53.1866 93.1081,-167.7252 36.6542,-62.3407 48.9216,-80.9393 51.5299,-78.1242 2.6012,2.8074 145.0258,300.8294 144.1735,301.6817 -2.9976,2.9977 -26.8929,1.312 -46.0418,-3.2479 l -22.4855,-5.3545 -21.8003,7.9538 c -11.9901,4.3746 -25.0145,8.518 -28.943,9.2076 -4.3109,0.7567 -23.0019,-4.8352 -47.1429,-14.1039 z"
       id="path3376-08"
       inkscape:connector-curvature="0" />
    <path
       style="fill:none;stroke:#000000;stroke-width:1px;stroke-linecap:butt;stroke-linejoin:miter;stroke-opacity:1"
       d="m 5018.3515,613.38466 37.1429,34.2857 c 0,0 -28.5715,11.4286 5.7143,-11.4286 34.2857,-22.8571 71.4285,-45.7142 71.4285,-45.7142"
       id="path3378-3"
       inkscape:connector-curvature="0" />
    <path
       style="fill:none;stroke:#000000;stroke-width:1px;stroke-linecap:butt;stroke-linejoin:miter;stroke-opacity:1"
       d="m 5135.4944,590.52756 22.8571,34.2857 14.2857,-28.5715 37.1429,25.7143 8.5714,2.8572"
       id="path3380-3"
       inkscape:connector-curvature="0" />
    <path
       style="fill:none;stroke:#000000;stroke-width:1px;stroke-linecap:butt;stroke-linejoin:miter;stroke-opacity:1"
       d="m 5284.0658,707.67036 34.2857,17.1429 25.7143,-2.8572 17.1429,-22.8571"
       id="path3382-9"
       inkscape:connector-curvature="0" />
    <path
       style="fill:none;stroke:#000000;stroke-width:1px;stroke-linecap:butt;stroke-linejoin:miter;stroke-opacity:1"
       d="m 5786.9229,1059.099 17.1429,8.5714"
       id="path3384-5"
       inkscape:connector-curvature="0" />
    <path
       style="fill:none;stroke:#000000;stroke-width:1px;stroke-linecap:butt;stroke-linejoin:miter;stroke-opacity:1"
       d="m 5798.3515,1064.8132 17.1429,22.8572 31.4285,-14.2857 20,31.4285 20,-28.5714"
       id="path3386-0"
       inkscape:connector-curvature="0" />
    <path
       style="fill:none;stroke:#000000;stroke-width:1px;stroke-linecap:butt;stroke-linejoin:miter;stroke-opacity:1"
       d="m 6038.3515,1381.9561 22.8572,11.4286 25.7142,-8.5715 8.5715,-5.7142"
       id="path3388-4"
       inkscape:connector-curvature="0" />
    <path
       style="fill:#ffffff"
       d="m 5034.0958,625.85216 -16.1129,-15.5948 44.918,-115.7718 c 24.7049,-63.6745 45.5588,-116.4126 46.3421,-117.1959 0.7833,-0.7833 24.8771,53.3372 53.5418,120.2677 28.6646,66.9306 51.47,122.3395 50.6786,123.1309 -0.7914,0.7914 -9.725,-4.4739 -19.8525,-11.7008 -10.1275,-7.2268 -19.19,-13.1397 -20.1389,-13.1397 -0.9489,0 -4.7161,5.8852 -8.3717,13.0781 l -6.6464,13.078 -10.5804,-15.9352 c -5.8192,-8.7643 -12.0618,-15.9351 -13.8725,-15.9351 -3.4506,0 -15.7535,7.457 -57.5662,34.8921 -13.8614,9.095 -25.4328,16.5105 -25.7143,16.4789 -0.2815,-0.032 -7.7626,-7.0753 -16.6247,-15.6524 l 0,0 z"
       id="path3390-8"
       inkscape:connector-curvature="0" />
    <path
       style="fill:#ffffff"
       d="m 5303.1456,715.98546 c -7.901,-3.8686 -14.3655,-8.3924 -14.3655,-10.053 0,-2.9678 31.0617,-102.0987 32.416,-103.453 0.3813,-0.3813 8.2493,22.2132 17.4846,50.2099 l 16.7914,50.9032 -6.1922,8.6962 c -8.6287,12.1179 -26.0792,13.5162 -46.1343,3.6967 z"
       id="path3392-5"
       inkscape:connector-curvature="0" />
    <path
       style="fill:#ffffff"
       d="m 5857.3515,1087.2764 c -5.0419,-7.8572 -10.37,-14.2857 -11.8402,-14.2857 -1.4702,0 -7.7136,2.5714 -13.8741,5.7143 -14.8324,7.5669 -16.0139,7.3588 -23.5451,-4.1473 -3.5502,-5.4239 -9.2407,-11.1333 -12.6457,-12.6876 -6.0875,-2.7788 -5.831,-3.6748 15.3762,-53.7099 11.8619,-27.98604 22.453,-51.87484 23.5359,-53.08614 1.083,-1.2112 12.54,26.0549 25.4601,60.59134 l 23.4911,62.7935 -7.6445,11.5516 c -4.2044,6.3534 -7.9824,11.5516 -8.3955,11.5516 -0.4131,0 -4.8763,-6.4286 -9.9182,-14.2857 z"
       id="path3394-7"
       inkscape:connector-curvature="0" />
    <path
       style="fill:#ffffff"
       d="m 3932.58,1699.4192 c 0.7041,-1.1785 68.1073,-124.9285 149.7849,-275 130.167,-239.164 296.7491,-540.96214 327.5754,-593.47104 9.3098,-15.8581 11.1034,-17.4912 16.7749,-15.2731 3.4928,1.3661 30.5057,12.2476 60.0287,24.1812 29.5229,11.9336 66.1936,26.0538 81.4904,31.3783 l 27.8123,9.6808 12.7953,-6.6246 c 23.3717,-12.1003 37.3281,-13.9892 60.6995,-8.2153 11.367,2.8082 26.8345,5.1915 34.3723,5.2962 l 13.7051,0.1904 53.1333,110.7143 c 29.2233,60.89284 54.0869,110.71434 55.2524,110.71434 2.3372,0 60.5313,-145.18624 138.5708,-345.71434 27.8256,-71.5 51.0082,-130.4605 51.5169,-131.0233 0.5087,-0.5628 8.0447,5.1235 16.7467,12.6363 12.4347,10.7353 15.1358,14.4862 12.6172,17.5209 -4.1698,5.0244 -2.2164,6.7471 5.3939,4.757 3.3584,-0.8783 5.4881,-3.2074 4.7327,-5.1759 -1.2393,-3.2295 72.1796,-53.0411 78.0826,-52.9757 1.2417,0.014 7.3094,7.8651 13.4837,17.4475 l 11.2261,17.4225 7.3729,-14.5498 7.373,-14.5499 17.1153,11.569 c 9.4134,6.363 19.6866,12.6731 22.8295,14.0224 3.9849,1.711 13.4517,20.6792 31.2807,62.6762 14.0615,33.1226 26.4924,60.2228 27.6242,60.2228 1.1318,0 4.8291,-8.3277 8.2162,-18.5059 l 6.1584,-18.506 16.2174,8.0103 c 21.7196,10.7281 39.1309,9.6937 48.0455,-2.8545 l 6.0621,-8.5331 8.4612,23.7661 c 4.6537,13.0713 62.2754,182.2303 128.0483,375.90884 65.7729,193.6786 120.7023,352.1429 122.0653,352.1429 3.5884,0 13.483,-22.3087 95.0438,-214.2858 40.3907,-95.0714 74.5943,-175.0592 76.008,-177.7507 3.5921,-6.8388 8.869,-3.9437 19.3087,10.5932 l 8.9851,12.5116 15.8491,-7.256 c 8.717,-3.9907 16.1658,-6.8025 16.5529,-6.2484 0.3871,0.5541 4.9916,7.8398 10.2322,16.1903 l 9.5284,15.1828 8.8003,-12.5674 8.8003,-12.5675 65.3106,173.0989 c 35.9209,95.2044 66.2628,174.095 67.4266,175.3124 1.9071,1.995 11.4182,-26.3436 33.1066,-98.642 4.1248,-13.75 8.3861,-24.9897 9.4696,-24.9771 1.0834,0.011 8.2383,16.3048 15.8997,36.2049 13.1483,34.1524 13.6413,36.3928 8.7893,39.9408 -9.0722,6.6337 -23.969,7.8321 -34.5624,2.7804 -14.7854,-7.0507 -41.3671,-2.4798 -26.8543,5.1095 12.6762,6.629 38.5092,3.7785 53.3535,-1.3287 10.8479,-3.7322 15.2747,-4.2189 16.2533,-1.7867 0.7397,1.8384 26.6876,68.914 57.6619,149.0569 30.9744,80.1428 56.6108,146.0364 56.9698,146.4302 0.3591,0.3937 43.6164,3.8893 96.1274,7.768 52.511,3.8787 99.9746,7.5293 105.4746,8.1126 5.5,0.5832 -549.683,1.2662 -1233.7401,1.5176 -684.057,0.2515 -1243.164,-0.507 -1242.46,-1.6856 z"
       id="path3396-5"
       inkscape:connector-curvature="0"
       sodipodi:nodetypes="cssssscssscsssssssscscccssssscsscsssssscssscccscscscssssscscsc" />
    <path
       style="fill:#550000"
       d="m 3939.9882,1689.4192 c 2.9156,-5.1071 40.9734,-74.8571 84.5728,-155 206.0606,-378.773 386.9056,-705.32324 395.0669,-713.36884 4.5619,-4.4972 7.191,-3.8545 42.0093,10.2688 20.4286,8.2865 58.5901,23.1875 84.8034,33.1134 l 47.6605,18.047 17.5145,-7.5958 c 24.328,-10.5508 34.9813,-11.6466 62.4801,-6.4271 13.1379,2.4937 28.0312,4.534 33.0963,4.534 8.9991,0 9.6228,0.864 27.3313,37.8571 49.6275,103.67234 88.8478,182.14294 91.0366,182.14294 1.3419,0 5.7515,-7.3929 9.7992,-16.4286 7.304,-16.3049 73.1053,-181.82774 143.6809,-361.42854 20.2233,-51.4643 37.8348,-93.5715 39.1367,-93.5715 6.2238,0 24.8891,18.5714 24.8891,24.7639 0,9.4301 8.1117,8.4391 18.5714,-2.2687 11.3827,-11.6527 66.9458,-48.7393 71.0539,-47.4263 1.7775,0.5682 8.3263,8.3889 14.5528,17.3795 l 11.321,16.3464 6.8845,-13.6831 c 3.7865,-7.5257 7.2248,-14.0729 7.6407,-14.5494 0.4158,-0.4765 10.0694,5.1584 21.4524,12.5221 22.9611,14.8534 19.6042,9.2975 59.9152,99.1659 8.3087,18.5233 16.4207,33.2408 18.0267,32.7054 1.606,-0.5353 5.5128,-7.9765 8.6819,-16.5359 3.1691,-8.5594 5.9195,-15.8393 6.1121,-16.1773 0.1926,-0.3381 8.5304,2.6894 18.5285,6.7278 21.4628,8.6692 35.4835,7.765 44.7433,-2.8855 l 6.0558,-6.9653 52.1754,153.2974 c 116.6647,342.77524 202.4862,591.75524 204.9973,594.72604 3.7116,4.3909 18.973,-28.7923 92.2726,-200.6291 44.4284,-104.154 81.7319,-190.4638 82.8967,-191.7995 2.3104,-2.6494 9.2907,3.507 18.726,16.5158 l 6.0367,8.323 16.2088,-6.5786 c 8.9148,-3.6183 16.5616,-6.0892 16.9929,-5.4909 0.4312,0.5983 5.0434,7.8758 10.2493,16.1721 l 9.4651,15.0843 8.7355,-11.8784 8.7355,-11.8784 8.4812,22.5084 c 7.5557,20.0525 74.679,196.4135 109.9451,288.8719 14.7021,38.5451 16.1821,39.3188 24.7204,12.9222 l 4.852,-15 15.0306,0 c 8.2668,0 21.282,-1.8814 28.9227,-4.1809 7.6407,-2.2995 14.1216,-3.9067 14.4019,-3.5715 0.2803,0.3353 25.8736,66.181 56.874,146.3238 31.0003,80.1429 57.4855,146.9118 58.856,148.3754 1.3705,1.4635 36.9087,5.4847 78.9737,8.9358 l 76.4818,6.2749 -1213.475,0.3498 -1213.4751,0.3499 5.3011,-9.2858 z"
       id="path3398-5"
       inkscape:connector-curvature="0" />
    <rect
       style="fill:#008000"
       id="rect3336-7"
       width="2571.4285"
       height="1385.7142"
       x="-3725.9927"
       y="327.18018" />
    <path
       style="fill:none;stroke:#000000;stroke-width:1px;stroke-linecap:butt;stroke-linejoin:miter;stroke-opacity:1"
       d="M -3047.0572,572.89445 -3661.343,1710.0373 c 617.1429,-1139.99999 642.8572,-1148.57142 642.8572,-1148.57142 l 257.1428,540.00002 282.8572,-728.57145 162.8571,380 48.5715,-157.14286 294.2857,871.42861 220,-517.14291 182.8571,488.57141 40,-140 151.4286,391.4286 285.7143,20"
       id="path3370-7"
       inkscape:connector-curvature="0" />
    <path
       style="fill:#2b0000"
       d="m -3659.4858,1711.4797 c 0,-1.4456 210.2219,-387.5948 285.9986,-525.3406 194.5116,-353.58071 346.3267,-619.13369 354.0603,-619.31757 0.8181,-0.0194 58.5062,119.85749 128.1957,266.39326 69.6896,146.5357 127.6288,267.43711 128.7539,268.66981 1.1251,1.2328 65.4716,-161.12101 142.9924,-360.78615 l 140.9469,-363.0275 78.0384,182.21475 c 92.1746,215.22209 83.7917,196.10346 85.3163,194.57889 0.6773,-0.67728 11.5265,-34.45508 24.1094,-75.0618 12.5829,-40.60668 23.3435,-74.29583 23.9124,-74.86475 0.5689,-0.56893 66.3737,192.79272 146.2327,429.69256 79.8591,236.8998 146.0766,431.7431 147.1501,432.985 1.0734,1.2418 11.6377,-20.6153 23.4762,-48.5715 11.8384,-27.9561 61.1224,-143.8107 109.5199,-257.4545 l 87.9954,-206.62511 90.2638,241.42861 c 49.645,132.7858 91.0277,242.1927 91.9615,243.1265 0.9338,0.9338 10.5205,-29.3042 21.3039,-67.1956 10.7833,-37.8914 20.1737,-67.1741 20.8674,-65.0728 0.6937,2.1014 34.3459,89.3207 74.7826,193.8207 l 73.5212,190 9.5862,0.918 c 5.2724,0.5049 67.4434,5.1615 138.1576,10.3479 l 128.5715,9.4298 -1277.8572,0.3664 c -702.8214,0.2016 -1277.8571,-0.093 -1277.8571,-0.6543 z"
       id="path3372-7"
       inkscape:connector-curvature="0" />
    <path
       style="fill:none;stroke:#000000;stroke-width:1px;stroke-linecap:butt;stroke-linejoin:miter;stroke-opacity:1"
       d="m -3169.9144,818.60879 c 151.4286,62.8571 177.1429,68.5714 177.1429,68.5714 l 22.8571,-11.4286 28.5714,-8.5714 45.7143,11.4286 25.7143,-2.8572"
       id="path3374-0"
       inkscape:connector-curvature="0" />
    <path
       style="fill:#ffffff"
       d="m -3040.9144,868.63729 c -58.607,-22.5018 -119.6466,-47.5801 -122.3979,-50.2874 -2.4328,-2.3939 25.7634,-53.18664 93.108,-167.7252 36.6542,-62.34073 48.9216,-80.93931 51.5299,-78.12424 2.6013,2.80738 145.0258,300.82944 144.1735,301.68174 -2.9976,2.9977 -26.8929,1.312 -46.0418,-3.2479 l -22.4855,-5.3545 -21.8002,7.9538 c -11.9902,4.3746 -25.0146,8.518 -28.9431,9.2076 -4.3109,0.7567 -23.0019,-4.8352 -47.1429,-14.1039 z"
       id="path3376-4"
       inkscape:connector-curvature="0" />
    <path
       style="fill:none;stroke:#000000;stroke-width:1px;stroke-linecap:butt;stroke-linejoin:miter;stroke-opacity:1"
       d="m -2569.9144,621.46588 37.1429,34.28571 c 0,0 -28.5715,11.42857 5.7143,-11.42857 34.2857,-22.85714 71.4285,-45.71428 71.4285,-45.71428"
       id="path3378-5"
       inkscape:connector-curvature="0" />
    <path
       style="fill:none;stroke:#000000;stroke-width:1px;stroke-linecap:butt;stroke-linejoin:miter;stroke-opacity:1"
       d="m -2452.7715,598.60874 22.8571,34.28571 14.2857,-28.57143 37.1429,25.71429 8.5714,2.85714"
       id="path3380-0"
       inkscape:connector-curvature="0" />
    <path
       style="fill:none;stroke:#000000;stroke-width:1px;stroke-linecap:butt;stroke-linejoin:miter;stroke-opacity:1"
       d="m -2304.2001,715.75159 34.2857,17.14286 25.7143,-2.85714 17.1429,-22.85715"
       id="path3382-97"
       inkscape:connector-curvature="0" />
    <path
       style="fill:none;stroke:#000000;stroke-width:1px;stroke-linecap:butt;stroke-linejoin:miter;stroke-opacity:1"
       d="m -1801.343,1067.1802 17.1429,8.5714"
       id="path3384-4"
       inkscape:connector-curvature="0" />
    <path
       style="fill:none;stroke:#000000;stroke-width:1px;stroke-linecap:butt;stroke-linejoin:miter;stroke-opacity:1"
       d="m -1789.9144,1072.8944 17.1429,22.8572 31.4285,-14.2857 20,31.4285 20,-28.5714"
       id="path3386-7"
       inkscape:connector-curvature="0" />
    <path
       style="fill:none;stroke:#000000;stroke-width:1px;stroke-linecap:butt;stroke-linejoin:miter;stroke-opacity:1"
       d="m -1549.9144,1390.0373 22.8572,11.4286 25.7142,-8.5715 8.5715,-5.7142"
       id="path3388-3"
       inkscape:connector-curvature="0" />
    <path
       style="fill:#ffffff"
       d="m -2554.1701,633.93338 -16.1129,-15.59476 44.918,-115.77181 c 24.7049,-63.67449 45.5588,-116.41268 46.3421,-117.19598 0.7833,-0.7833 24.8771,53.33721 53.5418,120.26779 28.6646,66.93058 51.47,122.33948 50.6786,123.13087 -0.7914,0.7914 -9.725,-4.47395 -19.8525,-11.70078 -10.1275,-7.22683 -19.19,-13.13969 -20.1389,-13.13969 -0.9489,0 -4.7161,5.88512 -8.3717,13.07803 l -6.6464,13.07803 -10.5804,-15.93517 c -5.8192,-8.76435 -12.0618,-15.93517 -13.8725,-15.93517 -3.4506,0 -15.7535,7.45703 -57.5662,34.89216 -13.8614,9.09502 -25.4328,16.5105 -25.7143,16.47883 -0.2815,-0.0317 -7.7626,-7.07523 -16.6247,-15.65235 l 0,0 z"
       id="path3390-7"
       inkscape:connector-curvature="0" />
    <path
       style="fill:#ffffff"
       d="m -2285.1203,724.06663 c -7.901,-3.86855 -14.3655,-8.39237 -14.3655,-10.05293 0,-2.96778 31.0617,-102.09877 32.416,-103.45304 0.3813,-0.38128 8.2493,22.2132 17.4846,50.20995 l 16.7914,50.90318 -6.1922,8.69619 c -8.6287,12.11792 -26.0792,13.51618 -46.1343,3.69665 z"
       id="path3392-6"
       inkscape:connector-curvature="0" />
    <path
       style="fill:#ffffff"
       d="m -1730.9144,1095.3576 c -5.0419,-7.8572 -10.37,-14.2857 -11.8402,-14.2857 -1.4702,0 -7.7136,2.5714 -13.8741,5.7143 -14.8324,7.5669 -16.0139,7.3588 -23.5451,-4.1473 -3.5502,-5.4239 -9.2407,-11.1333 -12.6457,-12.6876 -6.0875,-2.7788 -5.831,-3.6748 15.3762,-53.7099 11.8619,-27.98611 22.453,-51.87481 23.5359,-53.08611 1.083,-1.2112 12.54,26.0549 25.4601,60.59131 l 23.4911,62.7935 -7.6445,11.5516 c -4.2044,6.3534 -7.9824,11.5516 -8.3955,11.5516 -0.4131,0 -4.8763,-6.4286 -9.9182,-14.2857 z"
       id="path3394-4"
       inkscape:connector-curvature="0" />
    <path
       style="fill:#ffffff"
       d="m -3655.6859,1707.5004 c 0.7041,-1.1785 68.1073,-124.9285 149.7849,-275 130.167,-239.164 296.7491,-540.96211 327.5754,-593.47101 9.3098,-15.8582 11.1034,-17.4912 16.775,-15.2731 3.4928,1.3661 30.5056,12.2476 60.0286,24.1812 29.523,11.9336 66.1936,26.0538 81.4904,31.3783 l 27.8123,9.6808 12.7953,-6.6246 c 23.3717,-12.1003 37.3281,-13.9892 60.6995,-8.2154 11.367,2.8082 26.8345,5.1916 34.3723,5.2963 l 13.7051,0.1904 53.1333,110.7143 c 29.2233,60.89281 54.0869,110.71431 55.2524,110.71431 2.3372,0 60.5314,-145.18621 138.5708,-345.71431 27.8256,-71.5 51.0082,-130.46048 51.5169,-131.02328 0.5087,-0.56281 8.0447,5.12351 16.7467,12.63627 12.4347,10.7353 15.1358,14.48621 12.6172,17.5209 -4.1698,5.0244 -2.2164,6.74712 5.3939,4.75697 3.3584,-0.87823 5.4881,-3.20738 4.7327,-5.1759 -1.2393,-3.22951 72.1796,-53.04103 78.0826,-52.97569 1.2417,0.0137 7.3094,7.86512 13.4837,17.4475 l 11.2261,17.42251 7.3729,-14.54983 7.373,-14.54983 17.1153,11.56899 c 9.4134,6.36294 19.6866,12.67303 22.8295,14.02241 3.9849,1.71093 13.4517,20.67913 31.2807,62.6762 14.0615,33.12253 26.4924,60.22278 27.6242,60.22278 1.1318,0 4.8291,-8.32768 8.2162,-18.50596 l 6.1584,-18.50597 16.2174,8.01036 c 21.7196,10.7281 39.1309,9.69364 48.0455,-2.85453 l 6.0621,-8.53308 8.4612,23.76602 c 4.6537,13.07131 62.2754,182.23036 128.0483,375.90887 65.7729,193.6786 120.7023,352.1429 122.0653,352.1429 3.5884,0 13.483,-22.3087 95.0438,-214.2858 40.3907,-95.0714 74.5943,-175.0592 76.008,-177.7507 3.5921,-6.8388 8.869,-3.9437 19.3087,10.5932 l 8.9851,12.5116 15.8491,-7.256 c 8.717,-3.9907 16.1658,-6.8025 16.5529,-6.2484 0.3871,0.5541 4.9916,7.8398 10.2322,16.1903 l 9.5284,15.1828 8.8003,-12.5674 8.8003,-12.5675 65.3106,173.0989 c 35.9209,95.2044 66.2628,174.095 67.4266,175.3124 1.9071,1.995 11.4182,-26.3436 33.1066,-98.642 4.1248,-13.75 8.3861,-24.9897 9.4696,-24.9771 1.0834,0.011 8.2383,16.3048 15.8997,36.2049 13.1483,34.1524 13.6413,36.3928 8.7893,39.9408 -9.0722,6.6337 -23.969,7.8321 -34.5624,2.7804 -14.7854,-7.0507 -41.3671,-2.4798 -26.8543,5.1095 12.6762,6.629 38.5092,3.7785 53.3535,-1.3287 10.8479,-3.7322 15.2747,-4.2189 16.2533,-1.7867 0.7397,1.8384 26.6876,68.914 57.6619,149.0569 30.9744,80.1428 56.6108,146.0364 56.9698,146.4302 0.3591,0.3937 43.6164,3.8893 96.1274,7.768 52.511,3.8787 99.9746,7.5293 105.4746,8.1126 5.5,0.5832 -549.683,1.2662 -1233.7401,1.5176 -684.057,0.2515 -1243.164,-0.507 -1242.46,-1.6856 z"
       id="path3396-02"
       inkscape:connector-curvature="0"
       sodipodi:nodetypes="cssssscssscsssssssscscccssssscsscsssssscssscccscscscssssscscsc" />
    <path
       style="fill:#550000"
       d="m -3648.2777,1697.5004 c 2.9156,-5.1071 40.9734,-74.8571 84.5728,-155 206.0606,-378.773 386.9056,-705.32321 395.0669,-713.36881 4.5619,-4.4972 7.191,-3.8545 42.0093,10.2688 20.4286,8.2865 58.5901,23.1875 84.8034,33.1134 l 47.6605,18.047 17.5145,-7.5958 c 24.328,-10.5508 34.9813,-11.6466 62.4801,-6.4271 13.1379,2.4937 28.0312,4.534 33.0963,4.534 8.9991,0 9.6228,0.864 27.3313,37.8571 49.6276,103.67231 88.8478,182.14291 91.0366,182.14291 1.3419,0 5.7516,-7.3929 9.7992,-16.4286 7.304,-16.3049 73.1053,-181.82771 143.6809,-361.42856 20.2233,-51.46429 37.8348,-93.57143 39.1367,-93.57143 6.2238,0 24.8891,18.57133 24.8891,24.7639 0,9.43003 8.1117,8.43907 18.5714,-2.26878 11.3827,-11.65267 66.9458,-48.73929 71.0539,-47.42622 1.7775,0.56815 8.3263,8.3889 14.5528,17.37943 l 11.321,16.34643 6.8845,-13.6831 c 3.7865,-7.5257 7.2248,-14.07294 7.6407,-14.54943 0.4158,-0.47648 10.0694,5.15846 21.4524,12.52209 22.9611,14.85348 19.6042,9.29751 59.9152,99.16591 8.3087,18.52334 16.4207,33.2408 18.0267,32.70547 1.606,-0.53532 5.5128,-7.9765 8.6819,-16.53594 3.1691,-8.55944 5.9195,-15.83925 6.1121,-16.17734 0.1926,-0.3381 8.5304,2.68941 18.5285,6.72781 21.4628,8.6692 35.4835,7.76502 44.7433,-2.88548 l 6.0558,-6.96531 52.1754,153.29744 c 116.6647,342.77521 202.4862,591.75521 204.9973,594.72601 3.7116,4.3909 18.973,-28.7923 92.2726,-200.6291 44.4284,-104.154 81.7319,-190.4638 82.8967,-191.7995 2.3104,-2.6494 9.2907,3.507 18.726,16.5158 l 6.0367,8.323 16.2088,-6.5786 c 8.9148,-3.6183 16.5616,-6.0892 16.9929,-5.4909 0.4312,0.5983 5.0434,7.8758 10.2493,16.1721 l 9.4651,15.0843 8.7355,-11.8784 8.7355,-11.8784 8.4812,22.5084 c 7.5557,20.0525 74.679,196.4135 109.9451,288.8719 14.7021,38.5451 16.1821,39.3188 24.7204,12.9222 l 4.852,-15 15.0306,0 c 8.2668,0 21.282,-1.8814 28.9227,-4.1809 7.6407,-2.2995 14.1216,-3.9067 14.4019,-3.5715 0.2803,0.3353 25.8736,66.181 56.874,146.3238 31.0003,80.1429 57.4855,146.9118 58.856,148.3754 1.3705,1.4635 36.9087,5.4847 78.9737,8.9358 l 76.4818,6.2749 -1213.475,0.3498 -1213.4751,0.3499 5.3011,-9.2858 z"
       id="path3398-50"
       inkscape:connector-curvature="0" />
    <path
       style="fill:none;stroke:#000000;stroke-width:1px;stroke-linecap:butt;stroke-linejoin:miter;stroke-opacity:1"
       d="m -1664.7314,1189.7429 c 371.7361,-606.0915 371.7361,-614.17272 371.7361,-614.17272 l 266.6803,452.54832 113.1371,-258.59903 121.21831,242.43663"
       id="path3556"
       inkscape:connector-curvature="0" />
    <path
       style="fill:none;stroke:#000000;stroke-width:1px;stroke-linecap:butt;stroke-linejoin:miter;stroke-opacity:1"
       d="M 816.20326,1141.2556 C 1131.3708,753.35703 1131.3708,753.35703 1131.3708,753.35703 l 193.9493,226.27417 105.0559,-161.62441 88.8934,153.54319 177.7869,-436.3859 137.3807,379.81736"
       id="path3558"
       inkscape:connector-curvature="0" />
    <path
       style="fill:none;stroke:#000000;stroke-width:1px;stroke-linecap:butt;stroke-linejoin:miter;stroke-opacity:1"
       d="m 3394.1125,1238.2303 258.5991,-460.62961 266.6803,387.89861 193.9493,-404.06105 218.1929,250.51785"
       id="path3560"
       inkscape:connector-curvature="0" />
    <path
       style="fill:none;stroke:#000000;stroke-width:1px;stroke-linecap:butt;stroke-linejoin:miter;stroke-opacity:1"
       d="m 4638.6205,688.70727 161.6244,-234.35539 193.9493,290.92393"
       id="path3562"
       inkscape:connector-curvature="0" />
    <path
       style="fill:none;stroke:#000000;stroke-width:1px;stroke-linecap:butt;stroke-linejoin:miter;stroke-opacity:1"
       d="m 5390.174,793.76313 202.0305,-274.76149 193.9493,501.03566"
       id="path3564"
       inkscape:connector-curvature="0" />
    <path
       style="fill:#2b0000"
       d="m 1257.4958,1694.3316 c -70.4064,-5.0849 -129.0484,-10.3972 -130.3153,-11.8051 -1.267,-1.4078 -27.7102,-68.774 -58.7627,-149.7025 -31.0525,-80.9286 -58.1031,-151 -60.1124,-155.7143 -3.4872,-8.1817 -23.28434,-59.0723 -30.00969,-77.1429 -4.18491,-11.2446 -4.82857,-9.8343 -19.88591,43.5715 -10.00682,35.4924 -13.23774,43.5714 -17.42485,43.5714 -7.46341,0 -9.70366,5.5118 -3.95018,9.7188 4.48385,3.2787 4.59557,5.0332 1.17127,18.3941 l -3.78536,14.7697 -55.29171,-147.5114 c -48.18059,-128.5398 -54.784,-148.1087 -51.3441,-152.1556 2.17118,-2.5543 68.02982,-83.7156 146.35252,-180.35847 78.32271,-96.64285 145.83251,-179.7135 150.02171,-184.60143 l 7.6168,-8.88715 95.2154,111.16576 c 52.3685,61.14117 96.1671,111.75388 97.3301,112.47268 1.1631,0.71883 25.0486,-34.0454 53.079,-77.25383 28.0303,-43.20843 51.7658,-78.57191 52.7454,-78.58554 0.9796,-0.0143 20.8161,33.08237 44.081,73.54666 48.1903,83.81625 43.6462,76.44405 45.7948,74.29543 0.9113,-0.91135 40.8611,-97.86112 88.7773,-215.44398 47.9162,-117.58286 87.4568,-214.12348 87.8681,-214.53471 0.4112,-0.41122 30.5947,81.85999 67.0744,182.82493 l 66.3268,183.57261 -214.9661,397.85714 c -201.5352,372.9995 -215.423,397.836 -222.2803,397.5193 -4.0229,-0.1857 -64.9196,-4.4981 -135.326,-9.5831 l 0,0 z"
       id="path3568"
       inkscape:connector-curvature="0" />
    <path
       style="fill:#2b0000"
       d="m 3913.468,1707.0648 c -1.1002,-3.3007 -49.849,-9.2912 -112.5986,-13.8367 -60.8621,-4.4087 -112.633,-10.1465 -115.0465,-12.7506 -2.4135,-2.6041 -37.3674,-90.2347 -77.6754,-194.7347 -40.3079,-104.5 -74.7699,-190 -76.5821,-190 -1.8122,0 -8.3317,18.4503 -14.4879,41.0007 -6.1561,22.5504 -14.3999,44.2165 -18.3194,48.1469 -3.9196,3.9303 -5.6203,11.0711 -3.7794,15.8684 1.8409,4.7974 1.4712,11.7576 -0.8215,15.4674 -2.3568,3.8133 -21.2003,-38.6485 -43.3542,-97.6939 l -39.1857,-104.4388 114.2704,-203.7891 c 62.8486,-112.08401 117.5558,-208.2823 121.5714,-213.77399 6.4488,-8.81933 22.6254,12.32593 138.5776,181.14228 72.202,105.11991 132.6091,190.33441 134.2381,189.36541 1.6289,-0.969 45.3432,-90.5861 97.1428,-199.1491 51.7997,-108.563 95.8635,-196.8509 97.9198,-196.19532 2.0561,0.65558 46.2477,50.03241 98.2035,109.72628 l 94.4651,108.53432 -21.9012,40.03712 c -112.3643,205.4113 -360.2203,667.6972 -360.2203,671.861 0,3.2276 487.7963,5.8608 1250,6.7476 l 1250,1.4543 -1255.2381,1.4157 c -848.2995,0.9567 -1255.8671,-0.4714 -1257.1784,-4.4052 l 0,0 z"
       id="path3570"
       inkscape:connector-curvature="0" />
    <path
       style="fill:#2b0000"
       d="m -1153.7662,1255.7428 -0.1557,-437.14287 63.4883,107.36727 c 34.9186,59.05199 64.2645,106.5911 65.213,105.6426 0.9486,-0.9486 25.25912,-55.69248 54.02335,-121.65303 28.76422,-65.96054 54.04226,-121.75286 56.17341,-123.98293 2.13115,-2.23006 30.97235,49.87346 64.09157,115.7856 l 60.21675,119.84026 -170.68128,315.643 c -93.8747,173.6036 -175.5261,324.6429 -181.4474,335.6429 -10.627,19.7414 -10.7682,14.347 -10.922,-417.1428 z"
       id="path3572"
       inkscape:connector-curvature="0" />
    <path
       style="fill:#2b0000"
       d="m -1289.5974,1693.4318 c -44.6579,-3.4432 -83.5507,-8.8319 -86.4285,-11.9747 -2.8778,-3.1429 -38.1405,-91.2848 -78.3615,-195.8709 -40.221,-104.5862 -74.8744,-188.1576 -77.0075,-185.7143 -2.1331,2.4433 -8.3944,21.1566 -13.9139,41.5852 -5.5196,20.4285 -12.942,40.7146 -16.4944,45.0801 -3.5524,4.3655 -5.6262,14.6512 -4.6084,22.8572 1.2422,10.015 -0.047,13.0413 -3.9202,9.2055 -6.3787,-6.3162 -86.6408,-217.7811 -86.6408,-228.2706 0,-3.6163 49.1718,-87.4491 109.2707,-186.2951 60.0989,-98.846 142.1145,-234.14216 182.2568,-300.65815 l 72.9862,-120.93818 66.3146,112.76642 66.3145,112.76641 0,446.7432 0,446.7432 -24.2857,-0.8824 c -13.3571,-0.4852 -60.824,-3.6996 -105.4819,-7.1429 z"
       id="path3574"
       inkscape:connector-curvature="0" />
    <path
       style="fill:#2b0000"
       d="m 5506.4958,1117.9589 -110.2919,-322.13129 92.3235,-125.57659 c 50.7779,-69.06713 95.6976,-125.5766 99.8215,-125.5766 4.1238,0 45.3796,99 91.6794,220 46.2997,121 90.5007,230.29963 98.2243,242.88808 14.0655,22.925 8.3455,38.3752 -151.9896,410.5341 -7.1,16.4801 -37.124,-58.7601 -119.7672,-300.1377 l 0,0 z"
       id="path3576"
       inkscape:connector-curvature="0" />
    <path
       style="fill:#2b0000"
       d="m 4734.5348,884.72457 -91.8085,-191.37841 74.1686,-108.62159 c 40.7927,-59.74186 78.2333,-108.62158 83.2013,-108.62158 12.1748,0 161.1139,224.57517 161.0009,242.76223 -0.049,7.90935 -30.3889,91.52349 -67.4216,185.8092 l -67.3323,171.42858 -91.8084,-191.37843 0,0 z"
       id="path3578"
       inkscape:connector-curvature="0" />
  </g>
</svg>
